<?xml version="1.0" standalone="no"?>
<!DOCTYPE svg PUBLIC "-//W3C//DTD SVG 20010904//EN"
 "http://www.w3.org/TR/2001/REC-SVG-20010904/DTD/svg10.dtd">
<svg version="1.0" xmlns="http://www.w3.org/2000/svg"
 width="16.000000pt" height="16.000000pt" viewBox="0 0 16.000000 16.000000"
 preserveAspectRatio="xMidYMid meet">
<metadata>
Created by potrace 1.11, written by Peter Selinger 2001-2013
</metadata>
<g transform="translate(0.000000,16.000000) scale(0.005000,-0.005000)"
fill="#000000" stroke="none">
<path d="M1400 3150 l0 -50 -150 0 -150 0 0 -50 0 -50 -150 0 -150 0 0 -50 0
-50 -50 0 -50 0 0 -50 0 -50 -50 0 -50 0 0 -50 0 -50 -50 0 -50 0 0 -50 0 -50
-50 0 -50 0 0 -50 0 -50 -50 0 -50 0 0 -50 0 -50 -50 0 -50 0 0 -150 0 -150
-50 0 -50 0 0 -150 0 -150 -50 0 -50 0 0 -200 0 -200 50 0 50 0 0 -150 0 -150
50 0 50 0 0 -150 0 -150 50 0 50 0 0 -50 0 -50 50 0 50 0 0 -50 0 -50 50 0 50
0 0 -50 0 -50 50 0 50 0 0 -50 0 -50 50 0 50 0 0 -100 0 -100 200 0 200 0 0
-50 0 -50 150 0 150 0 0 -50 0 -50 200 0 200 0 0 50 0 50 150 0 150 0 0 50 0
50 150 0 150 0 0 50 0 50 50 0 50 0 0 50 0 50 50 0 50 0 0 50 0 50 50 0 50 0
0 50 0 50 50 0 50 0 0 50 0 50 50 0 50 0 0 50 0 50 50 0 50 0 0 150 0 150 50
0 50 0 0 150 0 150 50 0 50 0 0 200 0 200 -50 0 -50 0 0 150 0 150 -50 0 -50
0 0 150 0 150 -50 0 -50 0 0 50 0 50 -50 0 -50 0 0 50 0 50 -50 0 -50 0 0 50
0 50 -50 0 -50 0 0 50 0 50 -50 0 -50 0 0 50 0 50 -50 0 -50 0 0 50 0 50 -150
0 -150 0 0 50 0 50 -150 0 -150 0 0 50 0 50 -200 0 -200 0 0 -50z m400 -200
l0 -50 150 0 150 0 0 -50 0 -50 150 0 150 0 0 -100 0 -100 100 0 100 0 0 -100
0 -100 100 0 100 0 0 -150 0 -150 50 0 50 0 0 -150 0 -150 50 0 50 0 0 -200 0
-200 -50 0 -50 0 0 -150 0 -150 -50 0 -50 0 0 -150 0 -150 -100 0 -100 0 0
-100 0 -100 -100 0 -100 0 0 -100 0 -100 -150 0 -150 0 0 -50 0 -50 -150 0
-150 0 0 -50 0 -50 -200 0 -200 0 0 50 0 50 -150 0 -150 0 0 50 0 50 -150 0
-150 0 0 100 0 100 -100 0 -100 0 0 100 0 100 -100 0 -100 0 0 150 0 150 -50
0 -50 0 0 150 0 150 -50 0 -50 0 0 200 0 200 50 0 50 0 0 150 0 150 50 0 50 0
0 150 0 150 100 0 100 0 0 100 0 100 100 0 100 0 0 100 0 100 150 0 150 0 0
50 0 50 150 0 150 0 0 50 0 50 200 0 200 0 0 -50z"/>
<path d="M1500 2800 l0 -100 -50 0 -50 0 0 -100 0 -100 -50 0 -50 0 0 -100 0
-100 -50 0 -50 0 0 -100 0 -100 -50 0 -50 0 0 -100 0 -100 -50 0 -50 0 0 -100
0 -100 -50 0 -50 0 0 -100 0 -100 -100 0 -100 0 0 50 0 50 -50 0 -50 0 0 -200
0 -200 50 0 50 0 0 -50 0 -50 50 0 50 0 0 -50 0 -50 50 0 50 0 0 -50 0 -50 50
0 50 0 0 -50 0 -50 100 0 100 0 0 -50 0 -50 100 0 100 0 0 50 0 50 -50 0 -50
0 0 50 0 50 -100 0 -100 0 0 50 0 50 -50 0 -50 0 0 300 0 300 50 0 50 0 0 100
0 100 50 0 50 0 0 100 0 100 50 0 50 0 0 100 0 100 50 0 50 0 0 100 0 100 50
0 50 0 0 100 0 100 100 0 100 0 0 -100 0 -100 50 0 50 0 0 -100 0 -100 50 0
50 0 0 -100 0 -100 50 0 50 0 0 -100 0 -100 50 0 50 0 0 -100 0 -100 50 0 50
0 0 -300 0 -300 -50 0 -50 0 0 -50 0 -50 -100 0 -100 0 0 -50 0 -50 -50 0 -50
0 0 -50 0 -50 100 0 100 0 0 50 0 50 100 0 100 0 0 50 0 50 50 0 50 0 0 50 0
50 50 0 50 0 0 50 0 50 50 0 50 0 0 50 0 50 50 0 50 0 0 200 0 200 -50 0 -50
0 0 -50 0 -50 -100 0 -100 0 0 100 0 100 -50 0 -50 0 0 100 0 100 -50 0 -50 0
0 100 0 100 -50 0 -50 0 0 100 0 100 -50 0 -50 0 0 100 0 100 -50 0 -50 0 0
100 0 100 -50 0 -50 0 0 100 0 100 -100 0 -100 0 0 -100z"/>
<path d="M700 800 l0 -100 50 0 50 0 0 -50 0 -50 100 0 100 0 0 -50 0 -50 100
0 100 0 0 -50 0 -50 150 0 150 0 0 -50 0 -50 100 0 100 0 0 50 0 50 150 0 150
0 0 50 0 50 100 0 100 0 0 50 0 50 100 0 100 0 0 50 0 50 50 0 50 0 0 100 0
100 -50 0 -50 0 0 -50 0 -50 -50 0 -50 0 0 -50 0 -50 -100 0 -100 0 0 -50 0
-50 -200 0 -200 0 0 100 0 100 -100 0 -100 0 0 -100 0 -100 -200 0 -200 0 0
50 0 50 -100 0 -100 0 0 50 0 50 -50 0 -50 0 0 50 0 50 -50 0 -50 0 0 -100z"/>
</g>
</svg>
