<?xml version="1.0" standalone="no"?>
<!DOCTYPE svg PUBLIC "-//W3C//DTD SVG 20010904//EN"
 "http://www.w3.org/TR/2001/REC-SVG-20010904/DTD/svg10.dtd">
<svg version="1.0" xmlns="http://www.w3.org/2000/svg"
 width="260.000000pt" height="260.000000pt" viewBox="0 0 260.000000 260.000000"
 preserveAspectRatio="xMidYMid meet">
<metadata>
Created by potrace 1.11, written by Peter Selinger 2001-2013
</metadata>
<g transform="translate(0.000000,260.000000) scale(0.100000,-0.100000)"
fill="#000000" stroke="none">
<path d="M688 2541 c-140 -45 -290 -168 -410 -336 -62 -86 -156 -292 -183
-400 -45 -177 -57 -278 -62 -540 -5 -222 -3 -264 15 -370 32 -186 65 -286 135
-410 82 -145 220 -287 330 -339 105 -49 204 -71 322 -71 89 0 113 4 218 39
l118 38 47 -17 c26 -10 81 -35 122 -55 127 -63 196 -80 331 -80 249 0 383 54
540 216 121 125 283 363 319 469 34 99 70 319 70 429 0 100 -26 292 -60 441
-10 44 -30 152 -45 240 -14 88 -38 196 -52 240 -27 85 -110 244 -146 283 -36
39 -96 69 -219 112 -136 47 -239 70 -313 70 -62 0 -181 -22 -244 -44 -52 -19
-159 -85 -215 -132 l-39 -33 -91 83 c-110 101 -170 140 -255 166 -78 25 -158
25 -233 1z m222 -209 c25 -12 83 -57 129 -100 l85 -79 -29 -49 c-15 -27 -54
-87 -85 -134 -69 -104 -138 -228 -140 -255 -7 -73 25 -115 88 -115 51 0 82 25
123 98 60 107 172 273 183 269 14 -5 63 -120 87 -207 12 -42 19 -97 19 -156 0
-77 3 -95 20 -117 44 -55 134 -40 162 27 22 52 16 218 -11 306 -30 100 -75
204 -113 263 -30 47 -30 48 -12 68 34 38 154 111 204 124 92 24 161 27 235 10
110 -25 272 -85 293 -109 33 -36 101 -179 116 -247 8 -35 24 -122 36 -194 11
-71 29 -168 40 -215 31 -138 60 -330 60 -405 0 -67 -38 -294 -61 -363 -27 -81
-170 -285 -280 -398 -113 -117 -171 -142 -350 -151 -82 -4 -119 -2 -164 12
-65 18 -155 61 -155 73 0 4 25 36 56 72 131 152 180 265 172 393 -6 86 -37
178 -77 227 -15 19 -31 45 -35 56 -12 39 -52 66 -95 66 -22 0 -48 -5 -57 -10
-10 -5 -134 -7 -293 -5 -253 4 -279 3 -311 -14 -57 -30 -70 -69 -70 -213 0
-241 28 -315 176 -470 62 -64 91 -101 83 -106 -6 -4 -43 -9 -80 -12 -76 -5
-183 16 -257 51 -67 31 -190 159 -243 252 -59 104 -65 119 -88 217 -38 159
-43 222 -38 482 7 350 34 490 133 687 84 169 212 310 343 377 57 29 134 27
201 -6z m350 -1459 l122 -6 19 -41 c26 -58 25 -141 -4 -197 -35 -69 -126 -177
-179 -210 l-48 -31 -43 28 c-62 42 -193 179 -216 227 -21 43 -39 191 -28 221
5 13 27 16 130 16 68 0 179 -3 247 -7z"/>
</g>
</svg>
